<svg xmlns="http://www.w3.org/2000/svg" viewBox="0 0 1600 900" role="img" aria-label="Abstract arcade study map">
  <defs>
    <linearGradient id="bg" x1="0" y1="0" x2="1" y2="1">
      <stop offset="0" stop-color="#02030A"/>
      <stop offset="0.48" stop-color="#0A0820"/>
      <stop offset="1" stop-color="#050312"/>
    </linearGradient>
    <radialGradient id="cyan" cx="76%" cy="38%" r="48%">
      <stop offset="0" stop-color="#35DDF2" stop-opacity=".42"/>
      <stop offset=".48" stop-color="#35DDF2" stop-opacity=".14"/>
      <stop offset="1" stop-color="#35DDF2" stop-opacity="0"/>
    </radialGradient>
    <radialGradient id="pink" cx="88%" cy="62%" r="40%">
      <stop offset="0" stop-color="#F45BA8" stop-opacity=".32"/>
      <stop offset=".58" stop-color="#F45BA8" stop-opacity=".08"/>
      <stop offset="1" stop-color="#F45BA8" stop-opacity="0"/>
    </radialGradient>
    <filter id="soft">
      <feGaussianBlur stdDeviation="1.8"/>
    </filter>
    <pattern id="microgrid" width="48" height="48" patternUnits="userSpaceOnUse">
      <path d="M48 0H0V48" fill="none" stroke="#F8F3FF" stroke-opacity=".08" stroke-width="1"/>
    </pattern>
  </defs>
  <rect width="1600" height="900" fill="url(#bg)"/>
  <rect width="1600" height="900" fill="url(#microgrid)" opacity=".38"/>
  <rect width="1600" height="900" fill="url(#cyan)"/>
  <rect width="1600" height="900" fill="url(#pink)"/>
  <g opacity=".22" filter="url(#soft)">
    <path d="M1032 204l238 48 94 170-132 184-262-32-98-176z" fill="#35DDF2"/>
    <path d="M1032 204l-160 194 98 176 262 32 132-184-94-170z" fill="none" stroke="#F8F3FF" stroke-opacity=".44" stroke-width="2"/>
    <path d="M970 574l62-370M1232 606l38-354M872 398l492 24" fill="none" stroke="#F8F3FF" stroke-opacity=".36" stroke-width="1.5"/>
  </g>
  <g opacity=".28" fill="none" stroke-width="2">
    <ellipse cx="1118" cy="450" rx="328" ry="96" stroke="#E8B85D" stroke-opacity=".34"/>
    <ellipse cx="1118" cy="450" rx="246" ry="72" stroke="#F45BA8" stroke-opacity=".28"/>
    <ellipse cx="1118" cy="450" rx="158" ry="48" stroke="#35DDF2" stroke-opacity=".22"/>
  </g>
  <g opacity=".46">
    <path d="M166 642h360v88H166z" fill="#100A24" stroke="#35DDF2" stroke-opacity=".34"/>
    <path d="M198 674h132M198 704h216" stroke="#35DDF2" stroke-opacity=".54" stroke-width="8"/>
    <path d="M122 210h298v54H122zM122 292h232v54H122zM122 374h330v54H122z" fill="#100A24" stroke="#F8F3FF" stroke-opacity=".16"/>
    <path d="M145 237h138M145 319h90M145 401h186" stroke="#F45BA8" stroke-opacity=".45" stroke-width="7"/>
  </g>
  <g opacity=".62">
    <circle cx="1136" cy="290" r="5" fill="#35DDF2"/>
    <circle cx="1312" cy="386" r="5" fill="#F45BA8"/>
    <circle cx="996" cy="586" r="5" fill="#E8B85D"/>
    <circle cx="1338" cy="602" r="5" fill="#5E8CFF"/>
    <circle cx="776" cy="332" r="4" fill="#A477FF"/>
  </g>
  <path d="M0 0h1600v900H0z" fill="none" stroke="#35DDF2" stroke-opacity=".08" stroke-width="22"/>
</svg>
