<svg xmlns="http://www.w3.org/2000/svg" viewBox="0 66 88 89"><path fill="#e5aeef" d="M40.63849,74.35095c0.22495,0.17109 0.44989,0.34534 0.68118,0.51959c3.56112,2.89579 5.89296,7.2458 8.39271,11.0287c1.41621,2.13224 2.85143,4.25497 4.29299,6.37136c0.22178,0.3295 0.44672,0.659 0.67801,0.998c1.10889,1.62848 2.22728,3.24746 3.38053,4.84426c0.22495,-0.0697 0.44672,-0.13624 0.67801,-0.2091c5.82326,-1.57779 11.56414,-1.05186 16.91532,1.74254c1.87878,1.10572 3.39003,2.62015 4.90129,4.16943c0.19643,0.19326 0.3897,0.38336 0.59246,0.58296c3.33617,3.53577 4.56863,8.63033 4.63516,13.35737c0.00634,0.24396 0.01267,0.48791 0.01901,0.7382c-0.04752,4.39437 -1.78056,8.1741 -3.82092,11.95383c-0.22811,0.43088 -0.45306,0.8586 -0.67801,1.28631c-0.56078,1.06137 -1.1279,2.11956 -1.69819,3.17459c-0.47524,0.88394 -0.94414,1.76789 -1.41621,2.65183c-0.88394,1.64749 -1.78373,3.28231 -2.70252,4.90763c-0.20277,0.35801 -0.40554,0.71919 -0.61464,1.08988c-2.90529,4.85377 -7.26798,7.90163 -12.69204,9.36537c-5.73771,1.21027 -11.09207,0.43088 -16.1391,-2.69302c-3.20311,-2.16392 -5.46207,-4.47992 -6.98917,-8.06005c-0.67801,-1.32116 -0.97899,-1.81224 -2.38887,-2.33817c-1.09622,-0.21544 -2.20194,-0.32316 -3.31083,-0.44356c-5.08822,-0.71286 -9.7709,-4.5116 -12.99302,-8.32618c-0.56712,-0.75088 -1.09305,-1.5271 -1.61898,-2.30966c-0.14891,-0.21861 -0.29782,-0.43722 -0.44989,-0.66217c-0.31366,-0.46257 -0.62731,-0.9283 -0.94097,-1.39086c-0.46573,-0.69385 -0.9378,-1.3877 -1.40671,-2.07838c-1.83759,-2.70886 -3.66567,-5.42089 -5.49693,-8.13608c-0.9283,-1.38136 -1.86294,-2.75955 -2.80074,-4.13774c-0.52276,-0.76355 -1.04236,-1.53027 -1.55878,-2.30015c-0.34534,-0.50692 -0.69385,-1.01384 -1.04236,-1.52393c-4.03319,-5.98484 -5.94999,-12.64768 -4.63516,-19.83329c1.45423,-6.93848 5.51277,-12.71738 11.41523,-16.63652c9.40655,-5.56029 20.38773,-4.34051 28.81213,2.29699z"/></svg>